<svg xmlns="http://www.w3.org/2000/svg" width="75.101" height="29.54" viewBox="0 0 75.101 29.54"><path d="M107.376,143.173a34.7,34.7,0,0,0-3.645,1.411L99.2,146.5c-1.805.762-3.757,1.587-4.338,1.834l-2.483,1.055c-2.174.922-2.665,1.412-2.115,2.111.851,1.081,2.264.722,11.827-3.007,3.521-1.373,4.75-1.707,5.13-1.4.165.135,1.928,8.956,2.295,11.476.552,3.8,1.778,6.452,2.742,5.936,1.284-.687.818-5.6-1.618-17.073-.875-4.12-1.373-4.771-3.263-4.261m-69.13,5.4c-1.351,1.187.95,7.423,4.224,11.446,3.978,4.889,13.17,10.02,21.058,11.757,13.613,3,31.211-2.8,39.267-12.93,2.86-3.6,3.429-5.179,2.165-6.016-.954-.631-1.437-.3-3.346,2.3a31.1,31.1,0,0,1-15.74,11.735c-15.587,5.3-31.414,2.183-40.517-7.984a28.963,28.963,0,0,1-5.757-9.195c-.432-1.354-.768-1.631-1.353-1.118" transform="translate(-37.852 -143.023)" fill="#fff" fill-rule="evenodd" opacity="0.6"/></svg>